<?xml version="1.0" encoding="UTF-8"?>
<svg xmlns="http://www.w3.org/2000/svg" id="a" width="865.76" height="682.89" viewBox="0 0 865.76 682.89">
  <g>
    <path d="M174.35,117.19s6.75,441.36,109.87,468.31l302.55-79.34-48-455.75S245.82,100.79,174.35,117.19Z" fill="#fff"></path>
    <path d="M284.22,586.01l-.13-.03c-23.69-6.19-44.22-34.75-61.02-84.87-13.4-39.99-24.49-93.76-32.96-159.81-14.41-112.44-16.25-223-16.27-224.1v-.4s.39-.09,.39-.09c70.67-16.22,361.52-66.28,364.45-66.79l.53-.09,.06,.53,48.04,456.18-.42,.11-302.68,79.37ZM174.86,117.58c.13,7.46,2.29,114.65,16.26,223.6,8.46,65.99,19.53,119.69,32.91,159.62,16.65,49.69,36.9,78.01,60.2,84.18l302.01-79.2-47.9-454.79c-14.04,2.42-293.6,50.62-363.47,66.59Z" fill="#002346"></path>
  </g>
  <g>
    <path d="M618.22,542.31l-332.07,44.07c-.2,.03-.28-.24-.11-.34,26.83-15.55,3.77-54.19,3.77-54.19l335-55.79s22.47,45.18-6.59,66.25Z" fill="#ebebeb"></path>
    <path d="M286.13,586.87c-.29,0-.54-.18-.64-.46-.11-.31,.02-.65,.31-.81,6.14-3.56,10.11-8.66,11.79-15.16,4.4-16.95-8.08-38.13-8.2-38.34l-.38-.63,.72-.12,335.36-55.85,.16,.33c.23,.46,22.32,45.8-6.74,66.88l-.1,.08-.13,.02-332.07,44.07s-.06,0-.09,0Zm4.47-54.65c2.05,3.69,12.02,22.79,7.95,38.47-1.63,6.3-5.32,11.33-10.97,14.98l330.45-43.85c26.93-19.67,8.44-61.07,6.49-65.22l-333.92,55.61Z" fill="#002346"></path>
  </g>
  <g>
    <rect x="228.82" y="190.5" width="268.91" height="1" transform="translate(-26.54 62.57) rotate(-9.5)" fill="#002346"></rect>
    <rect x="232.03" y="223.37" width="285.55" height="1" transform="translate(-33.22 68.59) rotate(-10.01)" fill="#002346"></rect>
    <rect x="237.03" y="260.37" width="285.55" height="1" transform="translate(-39.58 70.02) rotate(-10.01)" fill="#002346"></rect>
    <rect x="245.03" y="295.37" width="285.55" height="1" transform="translate(-45.54 71.95) rotate(-10.01)" fill="#002346"></rect>
    <rect x="254.03" y="332.37" width="285.55" height="1" transform="translate(-51.84 74.07) rotate(-10.01)" fill="#002346"></rect>
    <rect x="267.16" y="387.29" width="136.81" height="1" transform="translate(-62.32 64.26) rotate(-10.01)" fill="#002346"></rect>
  </g>
  <g id="b">
    <path d="M605.63,269.35s26.63-107,39.67-125c0,0,24,2.44,34.29,10.91,0,0-29.85,151.47-60.14,215.62l-32.08-73.51,18.26-28.02Z" fill="#fff"></path>
    <path d="M619.43,372.08l-32.63-74.77,18.36-28.17c1.35-5.43,26.85-107.32,39.73-125.09l.17-.23,.29,.03c.99,.1,24.27,2.55,34.56,11.02l.23,.19-.06,.29c-.3,1.52-30.21,152.26-60.18,215.74l-.47,1Zm-31.5-74.67l31.53,72.25c29.13-62.57,58.08-206.69,59.57-214.21-9.57-7.64-30.78-10.27-33.5-10.58-12.9,18.4-39.16,123.53-39.42,124.59l-.07,.15-18.11,27.79Z" fill="#002346"></path>
  </g>
  <g>
    <path d="M645.3,144.39l3.65-9.69c.5-1.33,1.8-2.18,3.22-2.09,5.83,.38,20.81,1.94,28.27,8.05,.87,.73,1.29,1.88,1.09,3l-1.94,11.64s-5.32-6.22-34.29-10.91Z" fill="#ebebeb"></path>
    <path d="M679.91,156.43l-.7-.81c-.05-.06-5.7-6.16-33.99-10.74l-.6-.1,3.87-10.26c.58-1.54,2.08-2.51,3.72-2.41,6.07,.4,21.01,1.98,28.56,8.16,1.01,.85,1.49,2.18,1.27,3.47l-2.12,12.69Zm-33.92-12.45c23.23,3.82,31.08,8.6,33.26,10.33l1.79-10.74c.17-.95-.18-1.92-.92-2.54-7.32-5.99-22.01-7.54-27.98-7.93-1.2-.08-2.3,.64-2.72,1.77l-3.44,9.12Z" fill="#002346"></path>
  </g>
  <g>
    <path d="M469.9,319.84s.11-8.91,7-.89l-7,.89Z" fill="#f2b3c1"></path>
    <path d="M469.39,320.4v-.57c.01-.39,.11-3.88,2.12-4.61,1.46-.53,3.35,.58,5.77,3.39l.61,.71-8.49,1.08Zm2.84-4.3c-.16,0-.28,.03-.38,.06-.95,.35-1.31,2.03-1.42,3.1l5.46-.69c-1.87-2.02-3.01-2.47-3.66-2.47Z" fill="#002346"></path>
  </g>
  <g>
    <path d="M460.95,340.04l.96-.56,3.13,3.13c-.9,.98-3.05,2.59-4.09,3.43-.61,.48,.57-6.42,0-6Z" fill="#f2b3c1"></path>
    <path d="M461.01,346.64l-.37-.14c-.45-.25-.44-.76-.19-3.56,.09-.96,.22-2.41,.15-2.69,.01,.04,.08,.18,.25,.24l.13-.37-.32-.49,.26-.19,.04,.02,1.04-.61,3.74,3.74-.33,.35c-.72,.78-2.13,1.89-3.27,2.79-.33,.26-.63,.5-.87,.69l-.26,.21Zm.59-6.4c.04,.48-.02,1.29-.16,2.79-.06,.65-.14,1.51-.16,2.11,.08-.06,.16-.12,.24-.19,.9-.71,2.07-1.63,2.81-2.34l-2.51-2.51-.23,.13Z" fill="#002346"></path>
  </g>
  <g>
    <path d="M449.71,339.16s9.08,5.63,19.4,3.44c0,0,7.51-5,5.63-18.14l-10.32-2.77-17.2,6.21,2.49,11.26Z" fill="#f2b3c1"></path>
    <path d="M464.15,343.61c-8.1,0-14.39-3.83-14.71-4.03l-.18-.11-2.63-11.89,17.76-6.41,10.79,2.9,.05,.33c1.9,13.3-5.53,18.42-5.85,18.63l-.17,.07c-1.74,.37-3.43,.52-5.06,.52Zm-14-4.77c1.3,.75,9.58,5.19,18.75,3.29,.75-.55,6.94-5.56,5.39-17.28l-9.85-2.64-16.64,6.01,2.35,10.62Z" fill="#002346"></path>
  </g>
  <g>
    <path d="M366.94,592.21l12-33.32s3.71-6.79,8-53.07c0,0,6.17-68.19,4.32-95.65,0,0-4.94,3.39-22.53,3.39l-8.95,173.71,7.16,4.94Z" fill="#fff"></path>
    <path d="M367.19,592.99l-7.92-5.47,8.99-174.46h.47c17.14,0,22.2-3.27,22.25-3.3l.72-.48,.06,.86c1.83,27.18-4.26,95.04-4.32,95.73-4.25,45.86-7.91,52.98-8.06,53.26l-12.19,33.86Zm-6.9-5.97l6.4,4.41,11.78-32.71c.07-.14,3.77-7.57,7.97-52.95,.06-.67,6.03-67.19,4.37-94.79-1.9,.91-7.82,3.03-21.61,3.08l-8.91,172.96Z" fill="#002346"></path>
  </g>
  <g>
    <path d="M333.31,411.09s6.06,81.43,2.83,113.83c-.17,1.77-.49,3.53-.93,5.25-2.83,11-14.93,61.87-3.14,82.71,8.72,1.4,17.63,1.09,26.23-.92l11.73-.93s-6.18-13.27-.31-38c0,0,4.63-26.23,5.24-42.27l4.94-34.25,8-49.37,3.4-37s-5.85,7.12-57.99,.95Z" fill="#fff"></path>
    <path d="M342.88,614.24c-3.63,0-7.27-.29-10.9-.88l-.24-.04-.12-.21c-11.96-21.15,.48-72.92,3.09-83.08,.44-1.69,.75-3.43,.92-5.17,3.19-31.99-2.77-112.93-2.83-113.74l-.05-.6,.6,.07c50.74,6,57.49-.71,57.55-.78l1-1.11-.13,1.48-3.4,37-8,49.4-4.94,34.24c-.6,15.84-5.2,42.02-5.24,42.29-5.76,24.27,.21,37.57,.27,37.7l.3,.65-12.45,.99c-5.08,1.19-10.26,1.79-15.45,1.79Zm-10.5-1.83c8.62,1.36,17.3,1.04,25.8-.95l11.13-.89c-1.12-2.99-5.2-16.08-.08-37.67,.04-.23,4.62-26.35,5.23-42.17l4.94-34.3,8-49.38,3.3-35.89c-3.08,1.69-14.97,5.4-56.85,.49,.54,7.53,5.84,82.71,2.78,113.31-.18,1.79-.49,3.58-.94,5.33-2.59,10.06-14.88,61.18-3.31,82.13Z" fill="#002346"></path>
  </g>
  <g>
    <path d="M336.1,225.69s-22.94,13.81-21.61,27.4c0,0-4.88,49.85,4.41,90.76,.48,2.05,.68,4.16,.61,6.26-.38,9.73-2,38.6-7.69,48,0,0-3.84,16.8,61.38,15.48,9.65-.15,19.07-2.92,27.27-8,1.33-.83,2.62-1.73,3.85-2.71,1.25-1.01,1.99-2.53,2-4.14,.18-11.48,.53-60.6-5.48-89.57-.77-3.7-1.31-7.44-1.62-11.2-1.07-13.81-4.67-48-14.53-60.7l-48.59-11.58Z" fill="#004869"></path>
    <path d="M366.01,414.16c-36.03,0-48.72-5.97-52.95-11.16-2.22-2.73-1.76-4.92-1.73-5.01l.06-.15c5.71-9.43,7.27-38.94,7.62-47.76,.07-2.06-.13-4.12-.6-6.13-9.2-40.52-4.47-90.42-4.42-90.92-1.35-13.65,20.9-27.21,21.85-27.78l.18-.11,.2,.05,48.76,11.62,.11,.14c9.94,12.8,13.54,46.9,14.63,60.97,.3,3.73,.84,7.47,1.61,11.14,6.1,29.42,5.64,79.87,5.49,89.68-.01,1.76-.81,3.41-2.19,4.52-1.24,.98-2.55,1.91-3.9,2.75-8.27,5.13-17.79,7.92-27.53,8.08-2.49,.05-4.89,.08-7.19,.08Zm-53.72-15.88c-.05,.35-.17,2.02,1.6,4.15,3.61,4.35,16.11,11.54,59.29,10.65,9.56-.15,18.9-2.89,27.02-7.92,1.32-.82,2.6-1.72,3.8-2.68,1.14-.92,1.8-2.29,1.81-3.75,.15-9.8,.61-60.15-5.47-89.46-.77-3.7-1.32-7.49-1.63-11.26-1.08-13.93-4.63-47.6-14.32-60.29l-48.22-11.49c-2.1,1.31-22.42,14.31-21.2,26.82-.05,.6-4.77,50.34,4.4,90.7,.49,2.09,.7,4.24,.62,6.39-.35,8.86-1.92,38.45-7.71,48.16Z" fill="#002346"></path>
  </g>
  <g>
    <path d="M537.04,395.01s.72,58.71-.33,71.3c0,0-4.19,24.64,6.3,39.32l21.49,44-4.72-153.1-13.1-39.84-14.69,2.62s-2.48,26.28,5.05,35.7Z" fill="#004869"></path>
    <path d="M565.07,551.93l-22.51-46.09c-10.45-14.61-6.39-39.38-6.34-39.62,1-12.05,.37-67.53,.32-71.04-7.44-9.58-5.15-34.85-5.05-35.92l.04-.38,15.49-2.76,13.26,40.39,4.79,155.43Zm-32.62-192.21c-.26,3.25-1.86,26.42,4.97,34.96l.11,.13v.17c0,.59,.71,58.88-.33,71.35-.05,.29-4.04,24.65,6.21,38.99l20.51,41.98-4.65-150.7-12.94-39.36-13.88,2.48Z" fill="#002346"></path>
  </g>
  <g>
    <path d="M596.53,502.49s-2.38-56.14,.59-66.53c0,0,11.29-28.22,7.43-46.63l-70.1-32.78s4.5,70.14,9.77,88.73c1.68,5.98,2.4,12.2,2.12,18.41-.74,16.66-1.19,47.43,4.82,57.2,0,0,5.85,20.86,5.26,27.4,.25,4.18,.98,8.33,2.15,12.35,1.54,4.63,2.44,9.45,2.65,14.32l2.73,30.09s10,12.69,32.28,6.75l.3-109.31Z" fill="#004869"></path>
    <path d="M584.96,613.86c-14.49,0-21.31-8.4-21.4-8.51l-.09-.12-2.75-30.24c-.21-4.85-1.1-9.62-2.63-14.21-1.19-4.07-1.92-8.26-2.17-12.48,.56-6.27-4.86-25.93-5.22-27.23-6-9.89-5.62-40.21-4.86-57.42,.28-6.17-.43-12.31-2.1-18.25-5.22-18.43-9.74-88.13-9.78-88.83l-.05-.84,71.09,33.25,.05,.24c3.85,18.35-7.34,46.64-7.46,46.92-2.9,10.15-.58,65.76-.55,66.32v.02s-.3,109.69-.3,109.69l-.37,.1c-4.22,1.13-8.02,1.58-11.4,1.58Zm-20.52-9.02c1.04,1.2,10.97,11.83,31.29,6.57l.3-108.92c-.1-2.45-2.34-56.34,.61-66.68,.13-.33,11.11-28.09,7.47-46.15l-69.1-32.32c.53,8.02,4.81,70.56,9.69,87.78,1.7,6.05,2.42,12.29,2.14,18.57-.76,17.14-1.16,47.32,4.75,56.92l.06,.13c.24,.86,5.87,21.02,5.28,27.58,.25,4.07,.97,8.18,2.13,12.17,1.55,4.65,2.45,9.52,2.67,14.44l2.72,29.91Z" fill="#002346"></path>
  </g>
  <g>
    <path d="M400.83,309.2s28.23,11.81,52.32,12.13c0,0-1.25,21-7.82,21.9,0,0-23.38,2.82-40.38,.82,.02,0-1-19-4.12-34.85Z" fill="#004869"></path>
    <path d="M419.02,345.25c-4.8,0-9.69-.19-14.12-.71l-1.01-.12,.56-.57c-.11-2.03-1.18-19.7-4.1-34.56l-.18-.92,.86,.36c.28,.12,28.42,11.78,52.13,12.09h.52s-.03,.53-.03,.53c-.05,.88-1.35,21.42-8.25,22.37-.18,.02-12.93,1.53-26.38,1.53Zm-13.62-1.66c16.71,1.89,39.64-.83,39.87-.86,4.9-.67,6.92-14.85,7.35-20.91-21.45-.43-46.24-9.87-51.12-11.81,2.4,12.61,3.9,29.76,3.91,33.59Z" fill="#002346"></path>
  </g>
  <g>
    <path d="M452.84,323.52s17.73-5.84,24.07-4.57c.96,.21,1.56,1.15,1.35,2.11-.08,.37-.28,.7-.56,.95-4.84,4.31-20.68,17.19-25.17,5.57l.31-4.06Z" fill="#f2b3c1"></path>
    <path d="M458.92,332.81c-.64,0-1.26-.07-1.86-.21-2.29-.55-3.97-2.18-5-4.84l-.04-.11,.34-4.5,.32-.1c.73-.24,17.93-5.87,24.32-4.59,1.23,.27,2.01,1.48,1.74,2.7-.1,.48-.35,.9-.72,1.22-3.7,3.29-12.48,10.43-19.11,10.43Zm-5.89-5.31c.91,2.27,2.34,3.66,4.26,4.13,6.45,1.55,16.99-7.26,20.07-10,.21-.18,.35-.42,.41-.69,.15-.68-.29-1.36-.97-1.51-5.67-1.13-21.08,3.68-23.49,4.46l-.28,3.61Z" fill="#002346"></path>
  </g>
  <g>
    <path d="M460.91,346.24c2.25-1.85,10.6-9.36,12.49-20.68l4.3-3.54,5.71,2c.89,.31,1.83,.48,2.77,.51l9.84,.27s-.45,9.3,3.44,16.89c0,0-13.77,5.95-18.46,5.95,0,0-7.51,2.81-10.64-.63,0-.04-5.3,1.08-9.32-.1-.3-.09-.37-.48-.13-.68Z" fill="#f2b3c1"></path>
    <path d="M475.18,349.23c-1.83,0-3.7-.4-5-1.68-4.68,.75-7.63,.33-9.27-.15-.31-.09-.55-.35-.62-.67-.07-.33,.05-.66,.31-.87h0c2.42-1.98,10.47-9.32,12.31-20.37l.03-.18,4.66-3.84,5.98,2.09c.85,.29,1.73,.46,2.62,.48l10.35,.29-.02,.51c0,.09-.4,9.26,3.39,16.64l.24,.48-.49,.21c-.56,.24-13.75,5.92-18.57,5.99-.53,.19-3.17,1.09-5.91,1.09Zm-4.81-2.71c.12,0,.21,.03,.31,.12,2.91,3.2,10.07,.57,10.14,.54l.18-.03c4.04,0,15.3-4.66,17.78-5.7-3.2-6.59-3.3-14.13-3.27-16.15l-9.34-.26c-.99-.03-1.98-.21-2.92-.54l-5.45-1.91-3.94,3.24c-1.92,11.06-9.82,18.45-12.47,20.66,1.59,.43,4.34,.75,8.65,.06,.14-.02,.24-.04,.33-.04Zm-9.14,.11h0s0,0,0,0c0,0,0,0,0,0Z" fill="#002346"></path>
  </g>
  <g>
    <path d="M552.41,234.9s-19.81,35.58-19.41,52.57c0,0-6.12,86-4.22,112,.12,1.1,1.1,1.89,2.2,1.78,.55-.06,1.05-.34,1.38-.78,.07-.12,.14-.24,.2-.36,.85-1.68,2.07-3.14,3.56-4.28l.92-.74s-3.64-37.27,1.18-30.4l8.89,42.05s-1.21,6.06,7.28,4c0,0,37.6,3.64,56.2-12.13l15.72-6.4c3.35-1.35,4.97-5.17,3.61-8.51,0,0,0,0,0,0l-12.82-30.71s-6.88-22.64-4.45-34.36c0,0,13.75-74.4-24.26-112.81,0,0,3.24,5.26-1.21,9.71,0,0-20.5,25.07-30.21,33.56,0-.02-4.56,6.44-4.56-14.18Z" fill="#f9d72b"></path>
    <path d="M551.27,411.66c-1.55,0-2.74-.39-3.56-1.18-1.37-1.32-1.18-3.26-1.11-3.74l-8.85-41.85c-.39-.53-.58-.55-.58-.55-1.56,.62-1.03,16.42,.36,30.7l.03,.27-1.13,.91c-1.44,1.1-2.62,2.52-3.43,4.12-.06,.13-.14,.27-.23,.41-.44,.58-1.06,.93-1.75,1-1.37,.15-2.6-.85-2.75-2.22-1.88-25.75,4.16-111.23,4.22-112.09-.4-16.88,18.66-51.32,19.47-52.78l.94-1.68v1.93c0,12.43,1.66,14.35,2.37,14.59,.55,.19,1.17-.55,1.29-.71l.22-.28,.06,.02c9.65-8.54,29.74-33.07,29.95-33.32,4.14-4.15,1.29-8.93,1.17-9.13l-2.24-3.67,3.02,3.06c37.76,38.15,24.53,112.51,24.4,113.25-2.38,11.47,4.37,33.9,4.44,34.12l12.8,30.66c1.46,3.61-.29,7.72-3.88,9.18l-15.65,6.37c-18.14,15.3-54.41,12.38-56.43,12.2-1.18,.28-2.23,.42-3.16,.42Zm-14.09-48.32c.71,0,1.25,.78,1.45,1.06l.08,.18,8.91,42.15-.02,.1s-.34,1.84,.81,2.94c1.04,.99,3.07,1.16,5.86,.48l.08-.02h.08c.37,.05,37.61,3.45,55.83-12.01l.13-.08,15.72-6.4c3.09-1.25,4.59-4.78,3.34-7.86l-12.82-30.71c-.3-.98-6.91-22.94-4.48-34.65,.13-.72,12.85-72.29-22.41-110.56,.5,2.07,.54,5.15-2.22,7.92-.17,.21-20.56,25.11-30.2,33.55-.72,.9-1.61,1.28-2.38,1.01-1.91-.66-2.9-5.11-3.03-13.59-3.9,7.28-18.77,36.06-18.42,50.61-.06,.91-6.1,86.31-4.22,111.98,.09,.81,.83,1.41,1.65,1.32,.41-.04,.79-.26,1.03-.58,.04-.07,.1-.17,.15-.27,.88-1.75,2.16-3.28,3.71-4.46l.7-.56c-.72-7.46-2.68-30.35,.32-31.46,.12-.04,.23-.06,.35-.06Z" fill="#002346"></path>
  </g>
  <path d="M537.01,358.91h-.02c-.28-.01-.49-.24-.48-.52l2.44-66.87c.03-.32,3.23-28.8,11.64-41.5,.15-.23,.46-.29,.69-.14,.23,.15,.29,.46,.14,.69-8.28,12.51-11.45,40.74-11.48,41.02l-2.44,66.83c-.01,.27-.23,.48-.5,.48Z" fill="#002346"></path>
  <g>
    <path d="M335.78,404.3l.61,21.91c-.6,3.35,1.2,6.66,4.32,8,0,0,3.82,7.15,7.79,10.51,1.16,.94,2.87,.76,3.81-.41,.42-.51,.63-1.16,.6-1.82l-.13-3.44c0-.23,.28-.35,.43-.16,.66,.83,1.93,2.01,3.23,.89,.62-.58,.94-1.42,.86-2.27l-.85-11s6.77-2.46,2.47-14.82l-4.7-10.89s-1.43,.08-10.68,1.64c.02,0-4.99,.01-7.76,1.86Z" fill="#f2b3c1"></path>
    <path d="M350.2,445.82c-.73,0-1.43-.25-2.01-.71-3.73-3.16-7.24-9.42-7.83-10.51-3.24-1.47-5.07-4.91-4.46-8.42l-.62-22.14,.23-.15c2.84-1.9,7.82-1.94,8.04-1.94,9.09-1.54,10.6-1.64,10.66-1.64l.35-.02,4.84,11.21c3.9,11.2-.99,14.61-2.4,15.33l.82,10.65c.1,.99-.28,1.99-1.02,2.67-.52,.45-1.07,.64-1.66,.58-.71-.07-1.33-.5-1.82-.98l.1,2.72c.03,.78-.22,1.55-.71,2.16-.54,.67-1.3,1.08-2.16,1.18-.12,.01-.23,.02-.35,.02Zm-13.91-41.25l.6,21.68v.05c-.57,3.13,1.09,6.2,4.02,7.45l.16,.07,.08,.16c.04,.07,3.82,7.1,7.67,10.36,.45,.36,1.03,.53,1.61,.47,.59-.06,1.11-.35,1.49-.81,.34-.42,.51-.95,.49-1.49l-.13-3.44c-.01-.32,.18-.61,.49-.73,.3-.11,.64-.02,.84,.24,.55,.7,1.13,1.11,1.62,1.16,.31,.04,.6-.08,.89-.33,.49-.46,.76-1.15,.69-1.84l-.88-11.39,.36-.13c.25-.1,6.24-2.49,2.17-14.19l-4.54-10.52c-.81,.09-3.31,.42-10.28,1.6-.13,0-4.69,.05-7.34,1.64Z" fill="#002346"></path>
  </g>
  <g id="c">
    <path d="M332.07,612.88s-3.87,4.41-2.79,19.61l68-3.26s4.7-5.06-5.43-6.87c0,0-16.95-5.65-21.86-11.33,0,0-9.13,.3-11.73,.93,.04,0-14.35,3.73-26.19,.92Z" fill="#004869"></path>
    <path d="M328.82,633.01l-.03-.49c-1.08-15.23,2.75-19.79,2.91-19.97l.2-.23,.29,.07c10.57,2.5,23.12-.24,25.52-.81h0s.43-.11,.43-.11c2.62-.63,11.46-.93,11.83-.94h.24s.16,.17,.16,.17c4.76,5.51,21.47,11.13,21.64,11.18,3.82,.68,6.09,1.95,6.7,3.77,.67,2.02-.99,3.84-1.06,3.92l-.14,.15-68.69,3.29Zm3.46-19.57c-.7,1.07-3.35,6-2.53,18.53l67.29-3.23c.32-.41,1.12-1.6,.72-2.78-.48-1.42-2.55-2.49-6-3.11-.76-.25-16.86-5.66-21.99-11.31-1.44,.05-9.1,.35-11.39,.91v-.04c-2.12,.75-15.5,3.43-26.1,1.03Z" fill="#002346"></path>
  </g>
  <g>
    <path d="M569.74,599.86c-3.62-.18-7.13,1.31-9.48,4.08-3.84,4.51-11.05,10.89-21.2,10.89,0,0-12.67,.77-8.83,8.45,0,0,47.93,1.64,67.29,.07,1.96-.16,3.29-2.03,2.82-3.94-.35-1.42-.69-3.34-.89-5.86-.24-2.95-1-7-3-14l-26.71,.31Z" fill="#f9d72b"></path>
    <path d="M572.37,624.52c-20.04,0-41.83-.74-42.15-.75h-.3s-.13-.28-.13-.28c-.96-1.93-1.03-3.63-.2-5.07,2.08-3.61,9.15-4.08,9.45-4.1,9.71,0,16.69-5.83,20.85-10.71,2.42-2.85,6.11-4.44,9.87-4.25l27.08-.32,.1,.37c1.81,6.35,2.75,10.7,3.02,14.1,.17,2.18,.47,4.13,.88,5.79,.26,1.06,.05,2.17-.59,3.04-.63,.87-1.61,1.42-2.68,1.51-6.24,.51-15.52,.68-25.2,.68Zm-41.82-1.74c4.12,.13,48.62,1.55,66.93,.06,.78-.06,1.49-.46,1.95-1.1,.46-.64,.62-1.45,.43-2.22-.42-1.71-.72-3.71-.9-5.94-.26-3.27-1.15-7.45-2.88-13.54l-26.34,.31h-.02c-3.46-.17-6.85,1.29-9.08,3.9-4.29,5.05-11.52,11.06-21.58,11.06-.04,0-6.8,.45-8.62,3.6-.61,1.06-.58,2.36,.11,3.86Z" fill="#002346"></path>
  </g>
  <g>
    <path d="M530.22,623.28s-2.69,4.22,10,4.22l57.07-.42c2.03-.02,3.67-1.66,3.67-3.69v-2.58c0-.41-.34-.73-.75-.71l-69.99,3.2Z" fill="#fff"></path>
    <path d="M540.22,627.99c-5.95,0-9.46-.92-10.46-2.74-.64-1.16,0-2.2,.04-2.25l.14-.22,70.24-3.21c.32-.01,.66,.11,.89,.33,.24,.23,.38,.55,.38,.88v2.58c0,2.3-1.87,4.18-4.16,4.19l-57.07,.42Zm-9.68-4.23c-.08,.23-.13,.62,.1,1.03,.46,.83,2.33,2.21,9.57,2.21l57.06-.42c1.75-.01,3.17-1.45,3.17-3.19v-2.58c0-.08-.04-.13-.07-.16-.02-.02-.07-.05-.16-.06l-69.68,3.18Z" fill="#002346"></path>
  </g>
  <g>
    <circle cx="471.98" cy="448.89" r="40.54" fill="#f9d72b"></circle>
    <path d="M471.98,489.93c-22.63,0-41.04-18.41-41.04-41.04s18.41-41.04,41.04-41.04,41.04,18.41,41.04,41.04-18.41,41.04-41.04,41.04Zm0-81.08c-22.08,0-40.04,17.96-40.04,40.04s17.96,40.04,40.04,40.04,40.04-17.96,40.04-40.04-17.96-40.04-40.04-40.04Z" fill="#002346"></path>
  </g>
  <g>
    <path d="M477.54,470.63c-1.17,0-2.32-.3-3.35-.86l-31.52-17.27c-1.26-.69-1.72-2.26-1.03-3.52s2.26-1.72,3.52-1.03h0l31.52,17.26c.53,.29,1.17,.29,1.7,0,.54-.28,.9-.82,.94-1.42l6-70.53c.4-5.05,4.63-8.93,9.69-8.9h3.26c1.44,0,2.6,1.16,2.6,2.6s-1.16,2.6-2.6,2.6h-3.26c-2.36-.01-4.32,1.79-4.51,4.14l-6,70.53c-.31,3.63-3.36,6.41-7,6.4h.04Z" fill="#004869"></path>
    <path d="M477.52,471.13h-.03c-1.24,0-2.46-.33-3.55-.92l-31.52-17.27c-1.5-.82-2.05-2.7-1.23-4.2,.4-.72,1.05-1.25,1.84-1.48,.79-.23,1.63-.14,2.35,.26l31.52,17.26c.38,.21,.84,.21,1.22,0,.39-.2,.65-.59,.68-1.02l6-70.54c.42-5.27,4.87-9.37,10.19-9.36h3.26c1.71,0,3.1,1.39,3.1,3.1s-1.39,3.1-3.1,3.1h-3.26c-2.11-.04-3.85,1.61-4.01,3.68l-6,70.53c-.33,3.85-3.61,6.86-7.47,6.86Zm-33.61-23c-.2,0-.4,.03-.59,.08-.54,.16-.98,.51-1.25,1-.55,1.01-.18,2.29,.83,2.84l31.52,17.27c.95,.52,2.03,.8,3.11,.8,3.34,0,6.17-2.61,6.46-5.94l6-70.53c.21-2.58,2.39-4.6,4.98-4.6h3.28c1.16,0,2.1-.94,2.1-2.1s-.94-2.1-2.1-2.1h-3.31c-4.75,0-8.77,3.7-9.14,8.44l-6,70.53c-.06,.77-.52,1.47-1.21,1.82-.67,.37-1.49,.37-2.17,0l-31.52-17.26c-.31-.17-.66-.26-1-.26Z" fill="#002346"></path>
  </g>
  <g>
    <path d="M551.01,212.35s4.32,4.57,6.86,17l24.14-23.63-11.68-16.77-19.32,23.4Z" fill="#f2b3c1"></path>
    <path d="M557.56,230.34l-.18-.9c-2.47-12.11-6.69-16.71-6.73-16.76l-.3-.32,.28-.34,19.74-23.91,12.3,17.66-25.1,24.57Zm-5.9-18c1,1.23,4.31,5.91,6.51,16.01l23.19-22.7-11.06-15.88-18.63,22.57Z" fill="#002346"></path>
  </g>
  <g>
    <path d="M552.41,234.9s-.85,19.65,4.85,14.56c0,0,22.63-22.43,29.92-34,0,0,5-5.08,1.21-9.71,0,0-3.84-8.43-7.39-1.57,0,.04-26.69,22.28-28.59,30.72Z" fill="#004869"></path>
    <path d="M555.54,250.8c-.27,0-.54-.06-.79-.18-3.36-1.59-2.9-14.3-2.84-15.75v-.09c1.64-7.22,20.39-23.84,28.38-30.66,.15-.12,.25-.21,.31-.27,1.02-1.94,2.2-2.88,3.52-2.88,2.52,.06,4.44,3.94,4.7,4.49,3.76,4.67-.76,9.77-1.24,10.29-7.27,11.5-29.74,33.82-29.97,34.05-.74,.66-1.43,.99-2.07,.99Zm-2.64-15.84c-.22,5.2,.2,13.77,2.27,14.75,.45,.21,1.04,0,1.75-.63,.21-.21,22.65-22.5,29.83-33.89l.07-.08c.19-.19,4.64-4.82,1.18-9.04l-.07-.11c-.5-1.09-2.16-3.92-3.84-3.97-.01,0-.02,0-.04,0-.88,0-1.75,.78-2.56,2.33-.03,.12-.14,.22-.56,.57-6.16,5.25-26.35,22.92-28.03,30.07Z" fill="#002346"></path>
  </g>
  <g>
    <rect x="528.45" y="151.54" width="40" height="64" rx="20" ry="20" fill="#f2b3c1"></rect>
    <path d="M548.45,216.04c-11.3,0-20.5-9.2-20.5-20.5v-24c0-11.3,9.2-20.5,20.5-20.5s20.5,9.2,20.5,20.5v24c0,11.3-9.2,20.5-20.5,20.5Zm0-64c-10.75,0-19.5,8.75-19.5,19.5v24c0,10.75,8.75,19.5,19.5,19.5s19.5-8.75,19.5-19.5v-24c0-10.75-8.75-19.5-19.5-19.5Z" fill="#002346"></path>
  </g>
  <g>
    <path d="M346.57,215s-4.23-2.9-7.35,4c0,0-5.79,8.24-1.78,12.92,0,0,37.29,41.62,51.66,51.01,.27,.18,.63-.04,.59-.36-.67-5.19-4.36-34.21-4.63-44.31-.04-2.86-.57-5.7-1.57-8.38-.92-2.39-2.23-4.69-3.95-5.09l-32.97-9.79Z" fill="#fff"></path>
    <path d="M389.31,283.49c-.17,0-.34-.05-.49-.15-14.26-9.32-51.38-50.68-51.76-51.1-4.22-4.93,1.5-13.19,1.74-13.54,1.15-2.56,2.66-4.16,4.44-4.66,1.77-.49,3.19,.28,3.53,.48l32.9,9.77c1.59,.37,3.04,2.19,4.27,5.39,1.02,2.75,1.56,5.63,1.6,8.55,.26,10.01,3.9,38.62,4.62,44.25,.04,.34-.11,.67-.4,.85-.14,.09-.31,.14-.47,.14Zm-44.89-68.6c-.29,0-.6,.04-.92,.13-1.48,.42-2.77,1.83-3.83,4.18-.1,.16-5.57,8.06-1.86,12.39,.36,.41,37.03,41.25,51.34,50.78-.8-6.22-4.34-34.18-4.6-44.1-.04-2.82-.56-5.58-1.54-8.22-1.09-2.83-2.33-4.48-3.59-4.78l-33.14-9.86s-.79-.52-1.86-.52Z" fill="#002346"></path>
  </g>
  <g>
    <path d="M381.59,219.33l-5.62,14.7c-6.66-2.36-12.39-6.78-16.36-12.63-.88-1.32-1.55-2.77-2-4.29-.8-2.61-2.6-6.95-5.72-6.79l11.33-22.15s4.12,7.67,5,7c0,0,.9,15.52,13.37,24.16Z" fill="#f2b3c1"></path>
    <path d="M376.26,234.66l-.46-.16c-6.81-2.41-12.55-6.85-16.61-12.82-.91-1.37-1.6-2.86-2.07-4.43-.75-2.46-2.45-6.55-5.21-6.43l-.87,.04,12.16-23.77,.45,.84c1.59,2.95,3.65,6.25,4.39,6.74l.61-.47,.05,.94c0,.15,1.04,15.38,13.16,23.78l.32,.22-5.93,15.52Zm-23.58-24.79c2.95,.51,4.63,4.58,5.41,7.09,.43,1.48,1.09,2.88,1.94,4.16,3.84,5.66,9.25,9.9,15.65,12.27l5.31-13.88c-11.07-7.9-12.96-21.3-13.22-23.88-1.16-.54-3.29-4.16-4.53-6.39l-10.55,20.63Z" fill="#002346"></path>
  </g>
  <g>
    <path d="M351.92,210.32l-7.8,7.57,34.83,37.16s5.92-18.44-2.98-20.98c0,0-13.81-4.78-17.82-15.92,0-.04-1.3-7.54-6.23-7.83Z" fill="#f9d72b"></path>
    <path d="M379.17,256.01l-35.75-38.14,8.31-8.07h.22c4.92,.3,6.46,7.03,6.67,8.18,3.89,10.79,17.38,15.56,17.51,15.61,1.71,.49,3.04,1.58,3.92,3.23,3.25,6.09-.47,17.87-.63,18.37l-.26,.81Zm-34.35-38.1l33.9,36.16c.78-2.79,3.04-11.94,.45-16.77-.75-1.41-1.88-2.33-3.34-2.75-.6-.21-14.11-5-18.15-16.23l-.03-.17s-1.25-6.84-5.54-7.31l-7.28,7.07Z" fill="#002346"></path>
  </g>
  <g>
    <path d="M330.22,405.3c.1,.62,.69,1.03,1.3,.92,.21-.04,.41-.13,.57-.27,1.47-1.28,4.59-2.73,11.16-2.73,0,0,7.41,0,11-2.42,.79-.56,1.24-1.48,1.2-2.45l-1.74-62s-.7-9-3.16-15.59c-.7-1.81-1.04-3.75-1-5.69l1.24-44.21s-.44-38.32-33.86-27.62c0,0-3.56,6.23-2.45,9.8,0,0-4.76,51.89,4.41,90.76,0,0,4.06,11.26,8.29,34.65,.04,.05,1.8,19.41,3.04,26.85Z" fill="#004869"></path>
    <path d="M331.33,406.73c-.78,0-1.47-.56-1.61-1.36h0c-.99-5.91-2.32-19.52-2.82-24.64-.12-1.25-.2-2.05-.22-2.2h0c-4.17-23.08-8.23-34.47-8.27-34.58-8.91-37.77-4.67-88.33-4.45-90.88-1.07-3.74,2.37-9.84,2.52-10.1l.1-.17,.19-.06c9.51-3.04,17.31-2.44,23.18,1.79,10.99,7.93,11.32,25.56,11.33,26.3l-1.24,44.23c-.04,1.88,.29,3.73,.97,5.5,2.46,6.58,3.19,15.64,3.19,15.73l1.74,62.03c.05,1.13-.48,2.21-1.41,2.87-3.68,2.48-10.98,2.51-11.29,2.51-6.48,0-9.47,1.42-10.83,2.61-.22,.2-.5,.34-.81,.39-.09,.02-.18,.02-.27,.02Zm-.62-1.52c.06,.34,.38,.57,.73,.51,.12-.02,.23-.07,.31-.15,1.5-1.31,4.71-2.86,11.5-2.86,.07,0,7.3-.03,10.72-2.33,.65-.46,1.02-1.21,.98-2.01l-1.74-62.01c0-.06-.72-8.98-3.13-15.43-.72-1.88-1.07-3.86-1.03-5.88l1.24-44.21c0-.16-.33-17.86-10.92-25.49-5.56-4.01-12.99-4.58-22.1-1.71-.54,1-3.25,6.23-2.31,9.24l.03,.09v.1c-.06,.52-4.66,52.26,4.39,90.6,.02,.06,4.11,11.51,8.3,34.68h-.01c.05,.25,.1,.81,.25,2.29,.5,5.11,1.83,18.69,2.81,24.57h0Z" fill="#002346"></path>
  </g>
  <g>
    <path d="M527.35,180.11c.19,.36,.73,.27,.81-.13,.47-2.34,1.65-7.86,2.51-9.36,.25-.43,.7-.72,1.2-.75l14.32-1.19c1.42-.12,2.67,.93,2.79,2.36,.16,1.88,.84,4.07,3.18,3.86,0,0,9.59,7.81,9.59,10,0,0-.3-7.69,4-8.23,1.85-.19,3.56,1.02,4,2.83,.92,3.32,.47,6.87-1.25,9.86l4,2.45s6.64-9.37,1.48-13.61c0,0,11.8-11.43,1.66-17.52,0,0,6.64-11.06-4.24-13.46,0,0-11.62-5.16-36.51,4.06,0,0-25.41,8.67-7.9,15.86,.66,.32,.93,1.12,.61,1.78-.07,.15-.17,.28-.29,.39-.86,1-.47,1.26-.77,3.12-.28,1.39-.53,5.1,.82,7.69Z" fill="#002346"></path>
    <path d="M572.64,192.48l-4.81-2.95,.24-.42c1.64-2.85,2.08-6.31,1.2-9.48-.38-1.57-1.87-2.62-3.47-2.47-3.66,.46-3.56,7.15-3.55,7.68,0,.02,0,.04,0,.05l-1,.02s0-.03,0-.06c-.11-1.39-5.4-6.29-9.25-9.45-.8,.03-1.48-.19-2.03-.65-.84-.7-1.34-1.94-1.48-3.68-.1-1.14-1.11-2-2.25-1.9l-14.32,1.19c-.34,.02-.64,.21-.81,.5-.57,1-1.49,4.44-2.45,9.21-.08,.39-.39,.69-.79,.74-.4,.05-.77-.14-.95-.49-1.47-2.83-1.12-6.75-.86-8.01,.09-.57,.11-1,.13-1.34,.04-.73,.06-1.21,.75-2.01,.11-.11,.18-.19,.22-.29,.1-.2,.11-.42,.04-.63-.07-.21-.22-.38-.42-.48-4.33-1.78-6.51-3.87-6.43-6.21,.17-5.66,13.81-10.38,14.39-10.58,24.24-8.98,35.87-4.47,36.83-4.06,3.08,.69,5.11,2.13,6.03,4.27,1.56,3.62-.53,8.1-1.28,9.49,2.32,1.51,3.63,3.45,3.89,5.76,.59,5.11-4.1,10.44-5.5,11.91,4.71,4.61-1.52,13.53-1.8,13.92l-.27,.38Zm-3.47-3.3l3.18,1.95c1.14-1.77,5.48-9.12,1.31-12.55l-.43-.36,.4-.39c.06-.06,6.2-6.08,5.58-11.46-.24-2.12-1.53-3.9-3.83-5.27l-.43-.26,.26-.43c.03-.05,3.09-5.23,1.45-9.01-.8-1.84-2.6-3.09-5.37-3.7-.21-.08-11.87-4.98-36.23,4.04-3.78,1.29-13.6,5.54-13.73,9.66-.06,1.88,1.91,3.65,5.84,5.27,.47,.23,.8,.6,.96,1.06s.13,.96-.09,1.4c-.1,.2-.23,.38-.4,.54-.42,.5-.43,.7-.47,1.37-.02,.37-.04,.82-.15,1.47-.22,1.1-.55,4.69,.7,7.25,.54-2.87,1.64-7.88,2.5-9.38,.33-.58,.93-.96,1.6-1l14.31-1.19c1.7-.15,3.19,1.12,3.33,2.81,.12,1.44,.51,2.48,1.13,2.99,.39,.33,.89,.47,1.51,.41l.2-.02,.16,.13c1.29,1.05,6.66,5.5,8.84,8.45,.22-2.45,1.09-6.38,4.37-6.79,2.1-.21,4.05,1.17,4.55,3.21,.9,3.26,.51,6.8-1.07,9.8Z" fill="#002346"></path>
  </g>
  <g>
    <ellipse cx="566.64" cy="183.83" rx="5.21" ry="7.24" transform="translate(-22.21 93.68) rotate(-9.27)" fill="#f2b3c1"></ellipse>
    <path d="M567.19,191.53c-1.3,0-2.6-.59-3.71-1.7-1.27-1.26-2.14-3.07-2.47-5.08-.69-4.21,1.28-8.05,4.39-8.56h0c3.11-.52,6.19,2.51,6.88,6.72,.33,2.01,.07,4-.73,5.6-.82,1.66-2.12,2.71-3.66,2.96-.23,.04-.47,.06-.7,.06Zm-1.63-14.35c-2.56,.42-4.16,3.74-3.56,7.41,.29,1.81,1.07,3.42,2.19,4.53,1.07,1.07,2.33,1.55,3.54,1.36,1.21-.2,2.25-1.06,2.93-2.42,.7-1.42,.93-3.19,.64-5-.6-3.67-3.17-6.32-5.73-5.89h0Z" fill="#002346"></path>
  </g>
  <g>
    <ellipse cx="543.95" cy="170.54" rx="14" ry="6.5" fill="#002346"></ellipse>
    <path d="M543.95,177.54c-8.13,0-14.5-3.08-14.5-7s6.37-7,14.5-7,14.5,3.08,14.5,7-6.37,7-14.5,7Zm0-13c-7.32,0-13.5,2.75-13.5,6s6.18,6,13.5,6,13.5-2.75,13.5-6-6.18-6-13.5-6Z" fill="#002346"></path>
  </g>
  <g>
    <path d="M574.15,253.28c8.81-23.59,18.75-23.87,25.75-19.59,5.94,3.76,9.48,10.37,9.32,17.4-.31,42.08-25.32,71.94-25.32,71.94-8.23,18.81-22.73,14.9-22.73,14.9h-22.69l-39,3.73c-5.72-12.72-2.91-21.76-2.91-21.76l37.65-9.41c6.4-2.69,13.12-4.53,20-5.48,0,0,10.19,1.17,11.36-12.94l8.57-38.79Z" fill="#f9d72b"></path>
    <path d="M499.17,342.19l-.15-.33c-5.73-12.75-3.05-21.74-2.93-22.11l.08-.27,37.92-9.48c6.37-2.68,13.14-4.54,20.05-5.49h.06s.06,0,.06,0c.03,0,3.42,.35,6.36-2.08,2.55-2.1,4.04-5.6,4.44-10.41l8.6-38.92c4.54-12.16,9.86-19.37,15.8-21.42,3.43-1.19,7.02-.66,10.67,1.58,6.06,3.84,9.72,10.67,9.56,17.84-.3,40.9-24.17,70.7-25.39,72.19-8.02,18.24-22.09,15.4-23.22,15.14h-22.63l-39.31,3.76Zm-2.19-21.88c-.39,1.56-2.04,9.79,2.81,20.81l38.64-3.7h22.8s.06,.01,.06,.01c.58,.16,14.19,3.56,22.14-14.62l.07-.12c.25-.3,24.9-30.22,25.2-71.62,.15-6.82-3.33-13.33-9.09-16.97-3.38-2.07-6.68-2.56-9.82-1.48-5.64,1.95-10.75,8.94-15.18,20.79l-8.56,38.75c-.41,5.03-2.03,8.77-4.81,11.04-3.08,2.53-6.49,2.35-7.03,2.29-6.81,.94-13.48,2.77-19.82,5.44l-37.44,9.36Z" fill="#002346"></path>
  </g>
  <path d="M470.36,347.52c-.1,0-.2-.03-.29-.09-.22-.16-.28-.47-.11-.7l6.54-9.1c.16-.22,.47-.27,.7-.11,.22,.16,.28,.47,.11,.7l-6.54,9.1c-.1,.14-.25,.21-.41,.21Z" fill="#002346"></path>
  <path d="M481.36,347.52c-.11,0-.21-.03-.3-.1-.22-.17-.26-.48-.09-.7l4.59-5.97c.17-.22,.48-.26,.7-.09,.22,.17,.26,.48,.09,.7l-4.59,5.97c-.1,.13-.25,.2-.4,.2Z" fill="#002346"></path>
  <path d="M666.74,283.86s-.08,0-.12-.01c-.27-.07-.43-.34-.37-.6l24.49-101.26c.65-2.71-.69-5.56-3.19-6.78l-11.07-5.42c-.25-.12-.35-.42-.23-.67,.12-.25,.42-.35,.67-.23l11.07,5.42c2.92,1.43,4.48,4.76,3.72,7.92l-24.49,101.26c-.06,.23-.26,.38-.49,.38Z" fill="#002346"></path>
  <g>
    <path d="M408.45,158.83s5.5,12.36,0,20.29l-9.5-16.07,9.5-4.21Z" fill="#002346"></path>
    <path d="M408.42,180.04l-10.18-17.23,10.47-4.64,.2,.46c.23,.51,5.55,12.71-.05,20.77l-.44,.64Zm-8.75-16.77l8.8,14.89c4.02-6.75,.59-16.45-.29-18.67l-8.52,3.78Z" fill="#002346"></path>
  </g>
  <g>
    <rect x="366.45" y="154.54" width="42" height="66" rx="21" ry="21" fill="#f2b3c1"></rect>
    <path d="M387.45,221.04c-11.86,0-21.5-9.64-21.5-21.5v-24c0-11.86,9.64-21.5,21.5-21.5s21.5,9.64,21.5,21.5v24c0,11.86-9.64,21.5-21.5,21.5Zm0-66c-11.3,0-20.5,9.2-20.5,20.5v24c0,11.3,9.2,20.5,20.5,20.5s20.5-9.2,20.5-20.5v-24c0-11.3-9.2-20.5-20.5-20.5Z" fill="#002346"></path>
  </g>
  <g>
    <path d="M360.12,183.12c-1.63-4-4.49-10.59-6.76-13.65,0,0-5.41-10.68,7.46-7.6,0,0-1.87-4.35,4.48-7.07,0,0,13.09-11.88,28.28-1.23,.56,.4,1.35,.28,1.76-.26,.16-.21,.25-.47,.24-.74-.08-2,.52-4.16,3.69-3.34,0,0,9.91,3.76,9.14,13.33-.19,2.85-2.72,5.01-5.66,4.83-.18-.01-.35-.03-.52-.06-.63-.12-1.62-1.39-1.99-.71-5.22,9.41-17.92,2.71-17.92,2.71,0,0-1.68,2.9-5.41,.91,0,0,.84,13.79-4.01,19.4,0,0,0-10.18-5.99-7.74-2.97,1.21-3.27,4.62-2.81,7.58,0,.05-.06,0-.22-.21-1.59-1.84-2.86-3.92-3.76-6.15Z" fill="#002346"></path>
    <path d="M372.4,190.98v-1.34c0-.06-.03-5.62-2.4-7.21-.78-.52-1.73-.54-2.9-.07-2.79,1.14-2.9,4.46-2.51,7.04l.06,.42-.41,.15c-.38,.13-.61-.19-.77-.41-1.6-1.86-2.9-3.97-3.82-6.26h0c-1.52-3.73-4.41-10.45-6.7-13.54-.14-.26-2.41-4.82-.39-7.37,1.24-1.58,3.79-1.98,7.57-1.2-.08-.5-.11-1.19,.06-1.96,.32-1.41,1.42-3.39,4.84-4.87,1.04-.9,14.05-11.58,28.83-1.21,.34,.24,.82,.17,1.07-.16,.09-.13,.14-.27,.14-.43-.07-1.62,.31-2.79,1.13-3.45,.75-.61,1.82-.74,3.19-.38,.16,.06,10.31,4.02,9.51,13.85-.21,3.11-2.98,5.48-6.19,5.29-.19-.01-.38-.03-.57-.06-.36-.07-.69-.31-1.01-.54-.15-.1-.37-.26-.51-.33-4.91,8.66-15.95,4.04-18.15,3.01-.62,.73-2.26,2.18-5.03,1.08,.1,3.11,.12,13.97-4.17,18.93l-.88,1.01Zm-3.76-9.96c.7,0,1.35,.19,1.92,.58,1.99,1.34,2.59,4.7,2.76,6.63,3.77-5.92,3.09-17.83,3.08-17.96l-.05-.89,.79,.42c3.24,1.73,4.68-.62,4.74-.72l.24-.41,.42,.22c.5,.26,12.32,6.36,17.25-2.51,.16-.29,.39-.4,.55-.43,.47-.11,.93,.22,1.36,.53,.2,.14,.48,.34,.6,.37,.14,.02,.3,.04,.46,.05,2.66,.17,4.96-1.79,5.13-4.36,.73-9.08-8.43-12.68-8.82-12.83-.99-.25-1.76-.19-2.26,.21-.69,.56-.79,1.75-.76,2.64,0,.39-.12,.76-.34,1.06-.57,.76-1.67,.93-2.45,.37-14.67-10.29-27.13,.72-27.65,1.19l-.14,.09c-5.78,2.48-4.29,6.25-4.22,6.41l.38,.91-.96-.23c-3.76-.9-6.3-.67-7.35,.66-1.62,2.05,.44,6.19,.46,6.23,2.31,3.11,5.24,9.91,6.78,13.69h0c.72,1.79,1.68,3.46,2.85,5-.15-3.26,.98-5.56,3.28-6.5,.68-.28,1.32-.42,1.92-.42Z" fill="#002346"></path>
  </g>
  <g>
    <ellipse cx="368.81" cy="188.17" rx="5.64" ry="7.27" fill="#f2b3c1"></ellipse>
    <path d="M368.81,195.93c-3.39,0-6.14-3.49-6.14-7.77s2.75-7.77,6.14-7.77,6.14,3.49,6.14,7.77-2.76,7.77-6.14,7.77Zm0-14.54c-2.83,0-5.14,3.04-5.14,6.77s2.31,6.77,5.14,6.77,5.14-3.04,5.14-6.77-2.31-6.77-5.14-6.77Z" fill="#002346"></path>
  </g>
  <path d="M387.45,278.52c-.2,0-.39-.12-.47-.33l-8.5-22.98c-.1-.26,.04-.55,.3-.64,.26-.1,.55,.04,.64,.29l8.5,22.98c.1,.26-.04,.55-.3,.64-.06,.02-.12,.03-.17,.03Z" fill="#002346"></path>
  <path d="M404.77,341.54c-.22,0-.42-.15-.48-.37l-15.82-58c-.07-.27,.08-.54,.35-.61,.27-.07,.54,.08,.61,.35l15.82,58c.07,.27-.08,.54-.35,.61-.04,.01-.09,.02-.13,.02Z" fill="#002346"></path>
  <path d="M340.71,434.71c-.28,0-.5-.22-.5-.5v-8.97c0-.28,.22-.5,.5-.5s.5,.22,.5,.5v8.97c0,.28-.22,.5-.5,.5Z" fill="#002346"></path>
  <path d="M348.5,445.22c-.27,0-.49-.22-.5-.49l-.44-19.48c0-.28,.21-.5,.49-.51,.28-.05,.5,.21,.51,.49l.44,19.48c0,.28-.21,.5-.49,.51h-.01Z" fill="#002346"></path>
  <path d="M352.75,438.72c-.28,0-.5-.22-.5-.5v-12.18c0-.28,.22-.5,.5-.5s.5,.22,.5,.5v12.18c0,.28-.22,.5-.5,.5Z" fill="#002346"></path>
  <path d="M356.45,427.01c-.28,0-.5-.22-.5-.5v-6.98c0-.28,.22-.5,.5-.5s.5,.22,.5,.5v6.98c0,.28-.22,.5-.5,.5Z" fill="#002346"></path>
</svg>
